<?xml version="1.0" encoding="UTF-8"?>
<svg xmlns="http://www.w3.org/2000/svg" id="Layer_1" data-name="Layer 1" viewBox="0 0 24 24">
  <path d="m12,7c1.93,0,3.5-1.57,3.5-3.5s-1.57-3.5-3.5-3.5-3.5,1.57-3.5,3.5,1.57,3.5,3.5,3.5Zm0-6c1.379,0,2.5,1.122,2.5,2.5s-1.121,2.5-2.5,2.5-2.5-1.122-2.5-2.5,1.122-2.5,2.5-2.5Zm-4.997,11.444c.287-2.534,2.435-4.444,4.997-4.444s4.709,1.91,4.997,4.444c.031.274-.166.522-.44.553-.02.002-.038.003-.058.003-.251,0-.467-.188-.496-.444-.229-2.027-1.951-3.556-4.003-3.556s-3.773,1.529-4.003,3.556c-.031.274-.276.473-.553.44-.274-.031-.472-.278-.44-.553Zm7.914,5.674h-1.398l-.503-1.412c-.156-.423-.564-.707-1.016-.707s-.859.284-1.018.712l-.501,1.406h-1.398c-.453,0-.861.285-1.017.708-.157.424-.03.907.324,1.207l1.119.911-.442,1.329c-.138.438.017.917.385,1.193.189.141.414.215.649.215.215,0,.423-.063.603-.183l1.305-.874,1.331.866c.385.251.886.229,1.251-.049.365-.28.514-.762.365-1.208l-.455-1.297,1.114-.907c.347-.292.476-.774.32-1.2s-.564-.712-1.018-.712Zm-1.32,2.266c-.164.133-.227.354-.156.553l.571,1.628-.128.088-1.606-1.046c-.168-.11-.384-.108-.551.003l-1.579,1.057c-.018.012-.035.014-.047.014l-.082-.101.549-1.649c.065-.197.002-.415-.159-.545l-1.387-1.128.062-.14h1.75c.211,0,.4-.133.471-.332l.62-1.738h.15l.62,1.738c.071.199.26.332.471.332h1.751l.06.142-1.38,1.125Zm10.338-4.554c-.155-.426-.564-.712-1.018-.712h-1.398l-.503-1.413c-.157-.422-.565-.706-1.016-.706s-.858.284-1.018.712l-.501,1.406h-1.398c-.452,0-.861.285-1.016.708-.157.424-.03.907.323,1.207l1.119.911-.442,1.329c-.138.438.017.917.385,1.193.187.139.417.215.648.215.214,0,.422-.063.603-.183l1.306-.874,1.33.866c.385.251.886.229,1.251-.049.365-.28.514-.762.365-1.208l-.455-1.297,1.114-.907c.347-.292.476-.774.32-1.2Zm-2.338,1.554c-.164.133-.227.354-.156.553l.571,1.628-.128.088-1.606-1.046c-.167-.109-.384-.107-.551.003l-1.578,1.057c-.015.01-.03.015-.048.015l-.082-.101.549-1.649c.065-.197.002-.415-.159-.545l-1.387-1.128.062-.14h1.751c.212,0,.4-.133.471-.332l.619-1.738h.152l.619,1.738c.07.199.259.332.471.332h1.751l.06.142-1.38,1.125Zm-14.68-2.266h-1.398l-.503-1.412c-.156-.423-.564-.707-1.015-.707s-.859.284-1.018.712l-.501,1.406h-1.398c-.453,0-.861.285-1.017.708-.157.424-.03.907.324,1.207l1.119.911-.442,1.329c-.138.438.017.917.385,1.193.189.141.414.215.649.215.215,0,.423-.063.603-.183l1.305-.874,1.33.867c.385.25.888.23,1.252-.05.364-.281.512-.763.364-1.207l-.455-1.296,1.114-.908c.347-.292.476-.774.32-1.2s-.564-.712-1.018-.712Zm-1.32,2.266c-.163.133-.226.354-.156.553l.571,1.628-.127.088-1.606-1.046c-.168-.11-.385-.107-.551.003l-1.579,1.057c-.018.012-.035.014-.047.014l-.082-.101.549-1.649c.065-.197.002-.415-.159-.545l-1.387-1.128.062-.14h1.75c.211,0,.4-.133.471-.332l.62-1.738h.15l.62,1.738c.071.199.26.332.471.332h1.75l.06.142-1.38,1.125Z"/>
</svg>
